<svg width="16" height="16" viewBox="0 0 16 16" fill="none" xmlns="http://www.w3.org/2000/svg">
<path d="M15.7109 8.69635C15.5182 8.89445 15.2839 8.9935 15.0078 8.9935C14.7318 8.9935 14.5 8.89445 14.3125 8.69635L13.8438 8.2428L13 15.1867C12.9583 15.4161 12.8385 15.609 12.6406 15.7654C12.4427 15.9218 12.2188 16 11.9688 16H4.03125C3.78125 16 3.55729 15.9218 3.35938 15.7654C3.16146 15.609 3.04167 15.4161 3 15.1867L2.15625 8.2428L1.6875 8.69635C1.5 8.89445 1.26823 8.9935 0.992188 8.9935C0.716146 8.9935 0.481771 8.89445 0.289062 8.69635C0.0963542 8.49825 0 8.26366 0 7.99257C0 7.72149 0.0989583 7.48689 0.296875 7.28879L7.29688 0.282293C7.49479 0.0841927 7.72917 -0.00964436 8 0.000781976C8.28125 0.000781976 8.51562 0.094619 8.70312 0.282293L15.7031 7.28879C15.901 7.48689 16 7.72149 16 7.99257C16 8.26366 15.9036 8.49825 15.7109 8.69635ZM8 5.99071C6.89583 5.99071 5.95312 6.3817 5.17188 7.16368C4.39062 7.94565 4 8.88924 4 9.99443C4 11.0996 4.39062 12.0432 5.17188 12.8252C5.95312 13.6072 6.89583 13.9981 8 13.9981C9.10417 13.9981 10.0469 13.6072 10.8281 12.8252C11.6094 12.0432 12 11.0996 12 9.99443C12 8.88924 11.6094 7.94565 10.8281 7.16368C10.0469 6.3817 9.10417 5.99071 8 5.99071ZM8.32812 10.3541C8.23438 10.448 8.1224 10.4949 7.99219 10.4949C7.86198 10.4949 7.75 10.448 7.65625 10.3541L6.125 8.82147C6.03125 8.72763 5.98438 8.61294 5.98438 8.4774C5.98438 8.34185 6.03125 8.22716 6.125 8.13333C6.21875 8.03949 6.33333 7.99257 6.46875 7.99257C6.60417 7.99257 6.71875 8.03949 6.8125 8.13333L8 9.33757L9.6875 7.63286C9.78125 7.53903 9.89323 7.49211 10.0234 7.49211C10.1536 7.49211 10.2656 7.53903 10.3594 7.63286C10.4531 7.7267 10.5 7.84139 10.5 7.97693C10.5 8.11247 10.4531 8.22716 10.3594 8.321L8.32812 10.3541Z" fill="#2F3E4D"/>
</svg>
