<svg width="14" height="16" viewBox="0 0 14 16" fill="none" xmlns="http://www.w3.org/2000/svg">
<path fill-rule="evenodd" clip-rule="evenodd" d="M13.625 6H0.375C0.16875 6 0 6.16875 0 6.375V14.5C0 15.3281 0.671875 16 1.5 16H12.5C13.3281 16 14 15.3281 14 14.5V6.375C14 6.16875 13.8313 6 13.625 6ZM10.8044 9.20044C11.0794 8.91142 11.0623 8.45947 10.7664 8.19098C10.4704 7.92248 10.0076 7.93912 9.7327 8.22813L7.54507 10.5278L6.5499 9.60307C6.26678 9.34 5.82191 9.34074 5.53972 9.60475L3.22544 11.7699C2.93374 12.0428 2.92381 12.495 3.20327 12.7798C3.48272 13.0647 3.94573 13.0744 4.23742 12.8015L6.04744 11.1081L7.07296 12.061C7.21459 12.1926 7.40427 12.2634 7.59968 12.2575C7.79509 12.2516 7.97995 12.1696 8.11301 12.0297L10.8044 9.20044Z" fill="#2F3E4D"/>
<path d="M14 3.5V4.625C14 4.83125 13.8313 5 13.625 5H0.375C0.16875 5 0 4.83125 0 4.625V3.5C0 2.67188 0.671875 2 1.5 2H3V0.375C3 0.16875 3.16875 0 3.375 0H4.625C4.83125 0 5 0.16875 5 0.375V2H9V0.375C9 0.16875 9.16875 0 9.375 0H10.625C10.8313 0 11 0.16875 11 0.375V2H12.5C13.3281 2 14 2.67188 14 3.5Z" fill="#2F3E4D"/>
</svg>
