<svg width="32" height="28" viewBox="0 0 32 28" fill="none" xmlns="http://www.w3.org/2000/svg">
<path d="M23.6213 15.7494V21.5387C23.6213 24.6655 21.0809 27.2059 17.9542 27.2059H17.0259C15.7801 27.2059 14.7786 26.2044 14.7786 24.9586V17.2395C14.7786 14.6502 13.7527 13.6731 12.1649 13.6731C10.3572 13.6731 8.84274 14.7723 8.84274 17.8502V21.5387C8.84274 24.6655 6.30228 27.2059 3.17557 27.2059H2.24733C1.00153 27.2059 0 26.2044 0 24.9586V8.71433C0 7.46853 1.00153 6.46701 2.24733 6.46701H6.98625C7.76793 6.46701 8.40304 7.10212 8.40304 7.8838V8.88533C10.0885 7.24869 12.3603 6.46701 14.8519 6.46701C19.7862 6.46701 23.6213 9.22731 23.6213 15.7494Z" fill="#4D3088"/>
<path d="M32 4.95247C32 2.50973 30.0214 0.799805 27.2366 0.799805C24.4519 0.799805 22.4733 2.4853 22.4733 4.95247C22.4733 7.05323 23.9145 8.59216 26.0641 8.983C26.113 9.05628 26.1618 9.154 26.1618 9.25171V11.157C26.1618 11.3769 26.4305 11.4502 26.5527 11.2792L27.945 9.20285C27.9939 9.12956 28.0428 9.08071 28.0916 9.03185C30.4122 8.7143 32 7.12651 32 4.95247Z" fill="#4D3088"/>
</svg>